<svg xmlns="http://www.w3.org/2000/svg" xmlns:xlink="http://www.w3.org/1999/xlink" width="179.714" height="168.978" viewBox="0 0 179.714 168.978"><defs><radialGradient id="a" cx="0.5" cy="0.5" r="0.5" gradientUnits="objectBoundingBox"><stop offset="0" stop-color="#f1116d"/><stop offset="1" stop-color="#970af8"/></radialGradient><filter id="b" x="0" y="42" width="44.714" height="42.978" filterUnits="userSpaceOnUse"><feOffset dy="3" input="SourceAlpha"/><feGaussianBlur stdDeviation="3" result="c"/><feFlood flood-opacity="0.161"/><feComposite operator="in" in2="c"/><feComposite in="SourceGraphic"/></filter><filter id="e" x="45" y="42" width="44.714" height="42.978" filterUnits="userSpaceOnUse"><feOffset dy="3" input="SourceAlpha"/><feGaussianBlur stdDeviation="3" result="f"/><feFlood flood-opacity="0.161"/><feComposite operator="in" in2="f"/><feComposite in="SourceGraphic"/></filter><filter id="h" x="90" y="42" width="44.714" height="42.978" filterUnits="userSpaceOnUse"><feOffset dy="3" input="SourceAlpha"/><feGaussianBlur stdDeviation="3" result="i"/><feFlood flood-opacity="0.161"/><feComposite operator="in" in2="i"/><feComposite in="SourceGraphic"/></filter><filter id="k" x="135" y="42" width="44.714" height="42.978" filterUnits="userSpaceOnUse"><feOffset dy="3" input="SourceAlpha"/><feGaussianBlur stdDeviation="3" result="l"/><feFlood flood-opacity="0.161"/><feComposite operator="in" in2="l"/><feComposite in="SourceGraphic"/></filter><filter id="n" x="0" y="84" width="44.714" height="42.978" filterUnits="userSpaceOnUse"><feOffset dy="3" input="SourceAlpha"/><feGaussianBlur stdDeviation="3" result="o"/><feFlood flood-opacity="0.161"/><feComposite operator="in" in2="o"/><feComposite in="SourceGraphic"/></filter><filter id="q" x="45" y="84" width="44.714" height="42.978" filterUnits="userSpaceOnUse"><feOffset dy="3" input="SourceAlpha"/><feGaussianBlur stdDeviation="3" result="r"/><feFlood flood-opacity="0.161"/><feComposite operator="in" in2="r"/><feComposite in="SourceGraphic"/></filter><filter id="t" x="90" y="84" width="44.714" height="42.978" filterUnits="userSpaceOnUse"><feOffset dy="3" input="SourceAlpha"/><feGaussianBlur stdDeviation="3" result="u"/><feFlood flood-opacity="0.161"/><feComposite operator="in" in2="u"/><feComposite in="SourceGraphic"/></filter><filter id="w" x="135" y="84" width="44.714" height="42.978" filterUnits="userSpaceOnUse"><feOffset dy="3" input="SourceAlpha"/><feGaussianBlur stdDeviation="3" result="x"/><feFlood flood-opacity="0.161"/><feComposite operator="in" in2="x"/><feComposite in="SourceGraphic"/></filter><filter id="z" x="0" y="126" width="44.714" height="42.978" filterUnits="userSpaceOnUse"><feOffset dy="3" input="SourceAlpha"/><feGaussianBlur stdDeviation="3" result="aa"/><feFlood flood-opacity="0.161"/><feComposite operator="in" in2="aa"/><feComposite in="SourceGraphic"/></filter><filter id="ac" x="45" y="126" width="44.714" height="42.978" filterUnits="userSpaceOnUse"><feOffset dy="3" input="SourceAlpha"/><feGaussianBlur stdDeviation="3" result="ad"/><feFlood flood-opacity="0.161"/><feComposite operator="in" in2="ad"/><feComposite in="SourceGraphic"/></filter><filter id="af" x="90" y="126" width="44.714" height="42.978" filterUnits="userSpaceOnUse"><feOffset dy="3" input="SourceAlpha"/><feGaussianBlur stdDeviation="3" result="ag"/><feFlood flood-opacity="0.161"/><feComposite operator="in" in2="ag"/><feComposite in="SourceGraphic"/></filter><filter id="ai" x="135" y="126" width="44.714" height="42.978" filterUnits="userSpaceOnUse"><feOffset dy="3" input="SourceAlpha"/><feGaussianBlur stdDeviation="3" result="aj"/><feFlood flood-opacity="0.161"/><feComposite operator="in" in2="aj"/><feComposite in="SourceGraphic"/></filter><filter id="al" x="0" y="0" width="44.714" height="42.978" filterUnits="userSpaceOnUse"><feOffset dy="3" input="SourceAlpha"/><feGaussianBlur stdDeviation="3" result="am"/><feFlood flood-opacity="0.161"/><feComposite operator="in" in2="am"/><feComposite in="SourceGraphic"/></filter><filter id="ao" x="45" y="0" width="44.714" height="42.978" filterUnits="userSpaceOnUse"><feOffset dy="3" input="SourceAlpha"/><feGaussianBlur stdDeviation="3" result="ap"/><feFlood flood-opacity="0.161"/><feComposite operator="in" in2="ap"/><feComposite in="SourceGraphic"/></filter><filter id="ar" x="90" y="0" width="44.714" height="42.978" filterUnits="userSpaceOnUse"><feOffset dy="3" input="SourceAlpha"/><feGaussianBlur stdDeviation="3" result="as"/><feFlood flood-opacity="0.161"/><feComposite operator="in" in2="as"/><feComposite in="SourceGraphic"/></filter><filter id="au" x="135" y="0" width="44.714" height="42.978" filterUnits="userSpaceOnUse"><feOffset dy="3" input="SourceAlpha"/><feGaussianBlur stdDeviation="3" result="av"/><feFlood flood-opacity="0.161"/><feComposite operator="in" in2="av"/><feComposite in="SourceGraphic"/></filter></defs><g transform="translate(-1596.285 -58.011)"><g transform="matrix(1, 0, 0, 1, 1596.29, 58.01)" filter="url(#b)"><rect width="26.715" height="24.978" rx="12.489" transform="translate(9 48)" fill="url(#a)"/></g><g transform="matrix(1, 0, 0, 1, 1596.29, 58.01)" filter="url(#e)"><rect width="26.715" height="24.978" rx="12.489" transform="translate(54 48)" fill="url(#a)"/></g><g transform="matrix(1, 0, 0, 1, 1596.29, 58.01)" filter="url(#h)"><rect width="26.715" height="24.978" rx="12.489" transform="translate(99 48)" fill="url(#a)"/></g><g transform="matrix(1, 0, 0, 1, 1596.29, 58.01)" filter="url(#k)"><rect width="26.715" height="24.978" rx="12.489" transform="translate(144 48)" fill="url(#a)"/></g><g transform="matrix(1, 0, 0, 1, 1596.29, 58.01)" filter="url(#n)"><rect width="26.715" height="24.978" rx="12.489" transform="translate(9 90)" fill="url(#a)"/></g><g transform="matrix(1, 0, 0, 1, 1596.29, 58.01)" filter="url(#q)"><rect width="26.715" height="24.978" rx="12.489" transform="translate(54 90)" fill="url(#a)"/></g><g transform="matrix(1, 0, 0, 1, 1596.29, 58.01)" filter="url(#t)"><rect width="26.715" height="24.978" rx="12.489" transform="translate(99 90)" fill="url(#a)"/></g><g transform="matrix(1, 0, 0, 1, 1596.29, 58.01)" filter="url(#w)"><rect width="26.715" height="24.978" rx="12.489" transform="translate(144 90)" fill="url(#a)"/></g><g transform="matrix(1, 0, 0, 1, 1596.29, 58.01)" filter="url(#z)"><rect width="26.715" height="24.978" rx="12.489" transform="translate(9 132)" fill="url(#a)"/></g><g transform="matrix(1, 0, 0, 1, 1596.29, 58.01)" filter="url(#ac)"><rect width="26.715" height="24.978" rx="12.489" transform="translate(54 132)" fill="url(#a)"/></g><g transform="matrix(1, 0, 0, 1, 1596.29, 58.01)" filter="url(#af)"><rect width="26.715" height="24.978" rx="12.489" transform="translate(99 132)" fill="url(#a)"/></g><g transform="matrix(1, 0, 0, 1, 1596.29, 58.01)" filter="url(#ai)"><rect width="26.715" height="24.978" rx="12.489" transform="translate(144 132)" fill="url(#a)"/></g><g transform="matrix(1, 0, 0, 1, 1596.29, 58.01)" filter="url(#al)"><rect width="26.715" height="24.978" rx="12.489" transform="translate(9 6)" fill="url(#a)"/></g><g transform="matrix(1, 0, 0, 1, 1596.29, 58.01)" filter="url(#ao)"><rect width="26.715" height="24.978" rx="12.489" transform="translate(54 6)" fill="url(#a)"/></g><g transform="matrix(1, 0, 0, 1, 1596.29, 58.01)" filter="url(#ar)"><rect width="26.715" height="24.978" rx="12.489" transform="translate(99 6)" fill="url(#a)"/></g><g transform="matrix(1, 0, 0, 1, 1596.29, 58.01)" filter="url(#au)"><rect width="26.715" height="24.978" rx="12.489" transform="translate(144 6)" fill="url(#a)"/></g></g></svg>