<svg xmlns="http://www.w3.org/2000/svg" xmlns:xlink="http://www.w3.org/1999/xlink" width="399.555" height="357.35" viewBox="0 0 399.555 357.35"><defs><radialGradient id="a" cx="0.5" cy="0.5" r="0.5" gradientUnits="objectBoundingBox"><stop offset="0" stop-color="#f1116d"/><stop offset="1" stop-color="#970af8"/></radialGradient><filter id="b" x="0" y="53.455" width="265.48" height="256.439" filterUnits="userSpaceOnUse"><feOffset dy="3" input="SourceAlpha"/><feGaussianBlur stdDeviation="3" result="c"/><feFlood flood-opacity="0.161"/><feComposite operator="in" in2="c"/><feComposite in="SourceGraphic"/></filter></defs><g transform="translate(-1679.261 -881.037)"><g transform="matrix(1, 0, 0, 1, 1679.26, 881.04)" filter="url(#b)"><rect width="210.715" height="198.978" rx="99" transform="matrix(0.98, 0.21, -0.21, 0.98, 50.37, 59.46)" fill="url(#a)"/></g><path d="M246.57,437.894l162.1-154.309L246.57,437.894Zm-22.911-1.84,186.49-177.529L223.659,436.054ZM402.7,312.92,273.932,435.5ZM203.638,431.463,408.783,236.172,203.638,431.463Zm-17.855-6.653L405.269,215.868,185.783,424.809Zm-16.1-8.326L399.994,197.238,169.685,416.484ZM392.254,180.955,156.068,405.794Zm-10.693-13.471L145.373,392.323Zm-10.694-13.473L134.681,378.852Zm-10.692-13.47L123.987,365.381ZM349.481,127.07,113.295,351.908ZM338.789,113.6,102.6,338.438ZM94.6,322.4,325.345,102.743,94.6,322.4Zm-5.351-18.558,220.068-209.5L89.254,303.843Zm-3.6-20.22L291.558,87.606,85.649,283.622Zm-1.478-22.244L271.652,82.9,84.171,261.378Zm1.323-24.91L248.9,80.913,85.494,236.468ZM91.186,207.4,221.812,83.047,91.186,207.4Z" transform="matrix(0.087, 0.996, -0.996, 0.087, 2122.893, 790.885)" fill="none" stroke="#f1116d" stroke-width="2"/></g></svg>