<svg xmlns="http://www.w3.org/2000/svg" width="30.014" height="30.073" viewBox="0 0 30.014 30.073"><path d="M27.87,32H2.137A2.155,2.155,0,0,0,0,34.168V59.905a2.155,2.155,0,0,0,2.137,2.168H27.87a2.161,2.161,0,0,0,2.144-2.168V34.168A2.161,2.161,0,0,0,27.87,32ZM9.071,57.777H4.623V43.425H9.078V57.777ZM6.847,41.465a2.584,2.584,0,1,1,2.579-2.584A2.583,2.583,0,0,1,6.847,41.465Zm18.9,16.312H21.3V50.8c0-1.665-.033-3.806-2.311-3.806-2.318,0-2.673,1.812-2.673,3.685v7.1H11.865V43.425h4.268v1.96h.06a4.684,4.684,0,0,1,4.214-2.316c4.5,0,5.339,2.974,5.339,6.84Z" transform="translate(0 -32)" fill="#fff"/></svg>