<svg xmlns="http://www.w3.org/2000/svg" width="29.839" height="29.832" viewBox="0 0 29.839 29.832"><path d="M14.918,9.386a7.649,7.649,0,1,0,7.649,7.649A7.636,7.636,0,0,0,14.918,9.386Zm0,12.621a4.973,4.973,0,1,1,4.973-4.973,4.982,4.982,0,0,1-4.973,4.973ZM24.663,9.073a1.784,1.784,0,1,1-1.784-1.784A1.78,1.78,0,0,1,24.663,9.073Zm5.066,1.811a8.829,8.829,0,0,0-2.41-6.251,8.887,8.887,0,0,0-6.251-2.41c-2.463-.14-9.845-.14-12.308,0a8.874,8.874,0,0,0-6.251,2.4A8.857,8.857,0,0,0,.1,10.877c-.14,2.463-.14,9.845,0,12.308a8.829,8.829,0,0,0,2.41,6.251,8.9,8.9,0,0,0,6.251,2.41c2.463.14,9.845.14,12.308,0a8.829,8.829,0,0,0,6.251-2.41,8.887,8.887,0,0,0,2.41-6.251c.14-2.463.14-9.839,0-12.3ZM26.547,25.828a5.034,5.034,0,0,1-2.836,2.836c-1.964.779-6.623.6-8.794.6s-6.836.173-8.794-.6a5.034,5.034,0,0,1-2.836-2.836c-.779-1.964-.6-6.623-.6-8.794s-.173-6.836.6-8.794A5.034,5.034,0,0,1,6.124,5.405c1.964-.779,6.623-.6,8.794-.6s6.836-.173,8.794.6a5.034,5.034,0,0,1,2.836,2.836c.779,1.964.6,6.623.6,8.794S27.326,23.871,26.547,25.828Z" transform="translate(0.005 -2.119)" fill="#fff"/></svg>