<svg xmlns="http://www.w3.org/2000/svg" width="29.839" height="29.093" viewBox="0 0 29.839 29.093"><path d="M9.98,23.907c0,.12-.138.217-.313.217-.2.018-.337-.078-.337-.217,0-.12.138-.217.313-.217C9.824,23.673,9.98,23.769,9.98,23.907Zm-1.871-.271c-.042.12.078.259.259.295a.282.282,0,0,0,.373-.12c.036-.12-.078-.259-.259-.313a.309.309,0,0,0-.373.138Zm2.659-.1c-.174.042-.295.156-.277.295.018.12.174.2.355.156s.295-.156.277-.277S10.943,23.516,10.768,23.534ZM14.727.481A14.426,14.426,0,0,0,0,15.16,15.082,15.082,0,0,0,10.2,29.55c.77.138,1.041-.337,1.041-.728,0-.373-.018-2.43-.018-3.694,0,0-4.211.9-5.1-1.793,0,0-.686-1.751-1.672-2.2,0,0-1.378-.944.1-.926A3.176,3.176,0,0,1,6.87,21.759a3.18,3.18,0,0,0,4.386,1.257,3.344,3.344,0,0,1,.963-2.027c-3.363-.373-6.756-.86-6.756-6.648A4.559,4.559,0,0,1,6.882,10.8a5.684,5.684,0,0,1,.156-4.085C8.3,6.323,11.19,8.338,11.19,8.338a14.212,14.212,0,0,1,7.556,0S21.639,6.317,22.9,6.714a5.681,5.681,0,0,1,.156,4.085A4.676,4.676,0,0,1,24.6,14.342c0,5.805-3.543,6.269-6.906,6.648a3.558,3.558,0,0,1,1.023,2.791c0,2.027-.018,4.536-.018,5.029,0,.391.277.866,1.041.728A14.944,14.944,0,0,0,29.839,15.16C29.839,6.816,23.071.481,14.727.481ZM5.847,21.23c-.078.06-.06.2.042.313.1.1.235.138.313.06.078-.06.06-.2-.042-.313C6.064,21.194,5.926,21.152,5.847,21.23Zm-.65-.487c-.042.078.018.174.138.235a.179.179,0,0,0,.259-.042c.042-.078-.018-.174-.138-.235C5.336,20.665,5.24,20.683,5.2,20.743Zm1.949,2.142c-.1.078-.06.259.078.373.138.138.313.156.391.06.078-.078.042-.259-.078-.373C7.406,22.806,7.225,22.788,7.147,22.884ZM6.461,22c-.1.06-.1.217,0,.355s.259.2.337.138a.274.274,0,0,0,0-.373c-.084-.138-.241-.2-.337-.12Z" transform="translate(0 -0.481)" fill="#fff"/></svg>